<?xml version="1.0" encoding="UTF-8" standalone="no"?>
<svg
   xmlns:dc="http://purl.org/dc/elements/1.1/"
   xmlns:cc="http://creativecommons.org/ns#"
   xmlns:rdf="http://www.w3.org/1999/02/22-rdf-syntax-ns#"
   xmlns:svg="http://www.w3.org/2000/svg"
   xmlns="http://www.w3.org/2000/svg"
   xmlns:sodipodi="http://sodipodi.sourceforge.net/DTD/sodipodi-0.dtd"
   xmlns:inkscape="http://www.inkscape.org/namespaces/inkscape"
   viewBox="0 0 120 58"
   preserveAspectRatio="xMidYMid meet"
   version="1.1"
   id="svg845"
   sodipodi:docname="dark-logo.svg"
   width="120"
   height="58"
   inkscape:version="1.0.1 (c497b03c, 2020-09-10)">
  <metadata
     id="metadata851">
    <rdf:RDF>
      <cc:Work
         rdf:about="">
        <dc:format>image/svg+xml</dc:format>
        <dc:type
           rdf:resource="http://purl.org/dc/dcmitype/StillImage" />
        <dc:title></dc:title>
      </cc:Work>
    </rdf:RDF>
  </metadata>
  <defs
     id="defs849" />
  <sodipodi:namedview
     pagecolor="#ffffff"
     bordercolor="#666666"
     borderopacity="1"
     objecttolerance="10"
     gridtolerance="10"
     guidetolerance="10"
     inkscape:pageopacity="0"
     inkscape:pageshadow="2"
     inkscape:window-width="1333"
     inkscape:window-height="768"
     id="namedview847"
     showgrid="false"
     inkscape:zoom="1.5862247"
     inkscape:cx="70.346386"
     inkscape:cy="56.677816"
     inkscape:window-x="0"
     inkscape:window-y="23"
     inkscape:window-maximized="0"
     inkscape:current-layer="svg845" />
  <path
     style="fill:#c3f3f3;fill-opacity:1;stroke-width:0.0822021"
     d="m 24.948446,24.048346 c 0.492036,-0.0024 0.984083,-0.126786 1.455655,-0.366875 l 4.805368,-2.827069 c -0.183105,-0.279886 -0.489256,-0.5317 -0.997024,-0.815971 L 18.031554,13.048857 c -0.369614,-0.219416 -0.665457,-0.335668 -0.971305,-0.334798 -1.565963,1.542204 -1.598965,5.947973 0,7.543573 0.392962,0.02493 0.787657,0.152381 1.180101,0.383782 l 5.342028,3.089187 c 0.444131,0.215503 0.905095,0.319975 1.366068,0.317745 z"
     id="path833" />
  <path
     d="m 8.9235334,33.951653 c -0.4920359,0.0024 -0.9840826,0.126786 -1.4556552,0.366876 l -4.8053684,2.827068 c 0.183105,0.279886 0.489256,0.531701 0.9970247,0.815971 l 12.1808915,6.989575 c 0.369613,0.219416 0.665457,0.335667 0.971305,0.334798 1.016452,-2.247037 1.872799,-4.536206 0,-7.543574 -0.392962,-0.02493 -0.787656,-0.152381 -1.180102,-0.383781 L 10.289602,34.269399 C 9.8454709,34.053896 9.3845065,33.949424 8.9235334,33.951653 Z"
     style="fill:#74bff6;fill-opacity:1;stroke-width:0.0822021"
     id="path835" />
  <path
     style="fill:#56abf6;fill-opacity:1;stroke-width:0.0822021"
     d="m 26.937205,32.320299 -8.700641,5.038266 c -0.473702,0.287297 -0.958625,0.414728 -1.446509,0.383768 v 7.543617 c 0.290642,-8.7e-4 0.59032,-0.107406 0.971318,-0.334871 l 12.18108,-6.989488 c 0.494566,-0.276903 0.797743,-0.52307 0.982373,-0.794325 0.02288,-3.158304 -1.665855,-4.800641 -3.987621,-4.846967 z"
     id="path837" />
  <path
     d="m 16.934384,21.510522 c -0.329877,0.0016 -0.659744,0.09909 -0.971303,0.287114 l -5.059683,2.982836 18.394667,10.617444 c 0.571971,0.339759 1.048369,0.742031 1.368669,1.293098 0.09999,0.14552 0.186789,0.303222 0.25807,0.476259 l 0.01127,0.0059 c 0.230393,-0.33849 0.275844,-0.716004 0.275844,-1.241513 v -5.047833 c -0.0088,-0.895768 -0.173957,-1.356533 -1.227784,-1.963126 L 24.366843,25.606707 17.9593,21.829141 c -0.22428,-0.120086 -0.493235,-0.225572 -0.778691,-0.301997 -0.08188,-0.01155 -0.164058,-0.01702 -0.246222,-0.01662 z"
     style="fill:#8bd1fe;fill-opacity:1;stroke-width:0.0822021"
     id="path839" />
  <path
     d="m 6.9354651,25.6797 8.7006419,-5.038266 c 0.473703,-0.287296 0.958624,-0.414728 1.446509,-0.383768 V 12.71405 c -0.290642,8.3e-4 -0.590321,0.107405 -0.971319,0.33487 L 3.930217,20.038408 C 3.4356524,20.315312 3.1324745,20.561478 2.9478448,20.832732 2.98309,23.991036 5.0787077,25.6915 6.9354651,25.6797 Z"
     style="fill:#d6ffff;fill-opacity:1;stroke-width:0.0822021"
     id="path841" />
  <path
     style="fill:#a9f6f9;fill-opacity:1;stroke-width:0.0822021"
     d="m 16.938286,36.489477 c 0.329877,-0.0016 0.659745,-0.09909 0.971304,-0.287115 L 22.969273,33.219527 4.5746059,22.602083 C 4.0026355,22.262324 3.5262369,21.860052 3.2059371,21.308986 3.105952,21.163465 3.019148,21.005762 2.947867,20.832727 l -0.011271,-0.0059 c -0.2303927,0.338492 -0.275844,0.716007 -0.275844,1.241514 v 5.047834 c 0.00877,0.895768 0.1739573,1.356532 1.2277847,1.963126 l 5.6172935,3.314023 6.4075438,3.777566 c 0.22428,0.120087 0.493235,0.225571 0.77869,0.301997 0.08188,0.01155 0.164059,0.01702 0.246222,0.01662 z"
     id="path843" />
  <path
     style="fill:#f9fafb;fill-opacity:1;stroke-width:0.558701"
     d="m 45.532263,38.207981 q -1.206794,0 -2.056019,-0.849225 -0.849225,-0.849226 -0.849225,-2.056019 V 34.36412 h 2.413587 v 0.603396 q 0,0.491657 0.156436,0.670442 0.178785,0.156436 0.670441,0.156436 h 9.609652 q 0.491657,0 0.648093,-0.156436 0.156436,-0.178785 0.156436,-0.670442 v -2.771155 q 0,-0.514005 -0.156436,-0.670441 -0.156436,-0.156436 -0.648093,-0.156436 h -9.944872 q -1.206794,0 -2.056019,-0.849225 -0.849225,-0.849225 -0.849225,-2.056021 v -3.441597 q 0,-1.206793 0.849225,-2.056018 0.849225,-0.849225 2.056019,-0.849225 h 10.280092 q 1.206794,0 2.056019,0.849225 0.849225,0.849225 0.849225,2.056018 v 0.938618 h -2.435935 v -0.603397 q 0,-0.491657 -0.156436,-0.648093 -0.156436,-0.178784 -0.648093,-0.178784 h -9.609652 q -0.491656,0 -0.670441,0.178784 -0.156436,0.156436 -0.156436,0.648093 v 2.771155 q 0,0.514005 0.156436,0.670441 0.178785,0.156436 0.670441,0.156436 h 9.944872 q 1.206794,0 2.056019,0.849228 0.849225,0.849225 0.849225,2.056019 v 3.441596 q 0,1.206793 -0.849225,2.056019 -0.849225,0.849225 -2.056019,0.849225 z"
     id="path853" />
  <path
     style="fill:#f9fafb;fill-opacity:1;stroke-width:0.558701"
     d="M 61.091378,43.348027 V 25.246122 h 10.280093 q 1.206794,0 2.056019,0.849225 0.849225,0.849225 0.849225,2.056018 v 7.151372 q 0,1.206793 -0.849225,2.056019 -0.849225,0.849225 -2.056019,0.849225 h -7.866506 v 5.140046 z m 3.240464,-7.553634 h 6.704409 q 0.491657,0 0.648093,-0.156436 0.178784,-0.178784 0.178784,-0.670441 v -6.48093 q 0,-0.491657 -0.178784,-0.648093 -0.156436,-0.178784 -0.648093,-0.178784 h -6.704409 q -0.491656,0 -0.67044,0.178784 -0.156437,0.156436 -0.156437,0.648093 v 6.48093 q 0,0.491657 0.156437,0.670442 0.178784,0.156436 0.67044,0.156435 z"
     id="path855" />
  <path
     style="fill:#f9fafb;fill-opacity:1;stroke-width:0.558701"
     d="m 78.770065,38.207981 q -1.206793,0 -2.056018,-0.849225 -0.849225,-0.849226 -0.849225,-2.056019 v -7.151372 q 0,-1.206793 0.849225,-2.056018 0.849225,-0.849225 2.056018,-0.849225 h 10.235397 v 2.413587 h -9.900176 q -0.491657,0 -0.670441,0.178784 -0.156436,0.156437 -0.156436,0.648093 v 6.480931 q 0,0.491656 0.156436,0.670441 0.178784,0.156436 0.670441,0.156436 h 9.944872 v 2.413587 z"
     id="path857" />
  <path
     style="fill:#f9fafb;fill-opacity:1;stroke-width:0.558701"
     d="M 91.034244,38.207981 V 20.999997 h 2.413586 v 9.520262 h 2.905244 l 4.849526,-5.274137 h 2.77115 v 0.446961 l -5.475265,6.03397 5.475265,6.033967 v 0.446961 H 101.2026 L 96.353074,32.933846 H 93.44783 v 5.274135 z"
     id="path859" />
</svg>
