<?xml version="1.0" encoding="UTF-8" standalone="no"?>
<svg
   xmlns:dc="http://purl.org/dc/elements/1.1/"
   xmlns:cc="http://creativecommons.org/ns#"
   xmlns:rdf="http://www.w3.org/1999/02/22-rdf-syntax-ns#"
   xmlns:svg="http://www.w3.org/2000/svg"
   xmlns="http://www.w3.org/2000/svg"
   xmlns:sodipodi="http://sodipodi.sourceforge.net/DTD/sodipodi-0.dtd"
   xmlns:inkscape="http://www.inkscape.org/namespaces/inkscape"
   viewBox="0 0 120 58"
   preserveAspectRatio="xMidYMid meet"
   version="1.1"
   id="svg845"
   sodipodi:docname="logo.svg"
   width="120"
   height="58"
   inkscape:version="1.0.1 (c497b03c, 2020-09-10)">
  <metadata
     id="metadata851">
    <rdf:RDF>
      <cc:Work
         rdf:about="">
        <dc:format>image/svg+xml</dc:format>
        <dc:type
           rdf:resource="http://purl.org/dc/dcmitype/StillImage" />
        <dc:title></dc:title>
      </cc:Work>
    </rdf:RDF>
  </metadata>
  <defs
     id="defs849" />
  <sodipodi:namedview
     pagecolor="#ffffff"
     bordercolor="#666666"
     borderopacity="1"
     objecttolerance="10"
     gridtolerance="10"
     guidetolerance="10"
     inkscape:pageopacity="0"
     inkscape:pageshadow="2"
     inkscape:window-width="1333"
     inkscape:window-height="768"
     id="namedview847"
     showgrid="false"
     inkscape:zoom="1.5862247"
     inkscape:cx="70.346386"
     inkscape:cy="56.677816"
     inkscape:window-x="0"
     inkscape:window-y="23"
     inkscape:window-maximized="0"
     inkscape:current-layer="svg845" />
  <g
     id="g1532"
     transform="matrix(0.79053413,0,0,0.79053413,0.5573368,6.0745101)">
    <path
       style="fill:#76e1fa;fill-opacity:1;stroke-width:0.103983"
       d="m 30.853961,22.736319 c 0.62241,-0.003 1.244833,-0.160381 1.841356,-0.464085 l 6.078635,-3.576151 C 38.54233,18.342037 38.155059,18.0235 37.512749,17.663906 L 22.104317,8.8223222 C 21.636768,8.5447679 21.262536,8.3977127 20.875648,8.3988138 c -1.980892,1.9508382 -2.022639,7.5239932 0,9.5423742 0.497084,0.03154 0.99636,0.192758 1.49279,0.485472 l 6.757491,3.907721 c 0.561811,0.272605 1.144916,0.404758 1.728032,0.401938 z"
       id="path833" />
    <path
       d="m 10.582967,35.26368 c -0.6224095,0.003 -1.2448326,0.160381 -1.8413566,0.464086 l -6.0786349,3.57615 c 0.2316218,0.354047 0.6188929,0.672584 1.2612039,1.032177 l 15.4084326,8.841585 c 0.467548,0.277554 0.841781,0.424608 1.228669,0.423508 1.285778,-2.842428 2.36903,-5.738153 0,-9.542375 -0.497084,-0.03154 -0.99636,-0.192758 -1.492791,-0.485471 L 12.311,35.665619 C 11.749188,35.393014 11.166083,35.260861 10.582967,35.26368 Z"
       style="fill:#39a9f8;fill-opacity:1;stroke-width:0.103983"
       id="path835" />
    <path
       style="fill:#2898fa;fill-opacity:1;stroke-width:0.103983"
       d="m 33.369677,33.200071 -11.006029,6.373242 c -0.599218,0.363422 -1.212629,0.524618 -1.829787,0.485455 v 9.54243 c 0.367653,-0.0011 0.746736,-0.135865 1.228686,-0.423601 l 15.408671,-8.841475 c 0.625609,-0.350274 1.009119,-0.661667 1.24267,-1.004795 0.02894,-3.995153 -2.107253,-6.072655 -5.044211,-6.131256 z"
       id="path837" />
    <path
       d="m 20.716433,19.526054 c -0.417284,0.002 -0.834555,0.12534 -1.228667,0.36319 l -6.400334,3.77319 23.268656,13.430722 c 0.723524,0.429784 1.326153,0.938645 1.731322,1.635727 0.126479,0.184078 0.236282,0.383566 0.32645,0.602452 l 0.01426,0.0075 c 0.291439,-0.428178 0.348934,-0.905722 0.348934,-1.570473 V 31.383017 C 38.765964,30.2499 38.557003,29.667047 37.223946,28.899726 L 30.118252,24.707595 22.012918,19.929096 C 21.729211,19.777191 21.388992,19.643755 21.0279,19.54708 20.924322,19.53247 20.820371,19.52555 20.716437,19.52606 Z"
       style="fill:#59b3ff;fill-opacity:1;stroke-width:0.103983"
       id="path839" />
    <path
       d="M 8.0681252,24.799929 19.074155,18.426686 c 0.599218,-0.363421 1.212628,-0.524618 1.829786,-0.485454 V 8.3988024 c -0.367652,0.00105 -0.746736,0.1358635 -1.228686,0.4235998 L 4.2665839,17.663877 c -0.6256082,0.350275 -1.0091183,0.661667 -1.2426689,1.004794 0.044584,3.995153 2.6954723,6.146184 5.0442102,6.131258 z"
       style="fill:#7aefff;fill-opacity:1;stroke-width:0.103983"
       id="path841" />
    <path
       style="fill:#4fd2f9;fill-opacity:1;stroke-width:0.103983"
       d="m 20.721369,38.473945 c 0.417284,-0.002 0.834556,-0.125341 1.228668,-0.363191 L 28.350371,34.337565 5.081715,20.906843 C 4.358191,20.477059 3.7555622,19.968198 3.3503934,19.271117 3.2239154,19.087038 3.1141112,18.887549 3.0239431,18.668665 l -0.014257,-0.0075 C 2.7182468,19.089347 2.6607524,19.566891 2.6607524,20.23164 v 6.385346 c 0.011094,1.133117 0.2200504,1.715969 1.5531078,2.483291 l 7.1056938,4.192131 8.105334,4.778498 c 0.283707,0.151906 0.623927,0.285341 0.985018,0.382017 0.103579,0.01461 0.207529,0.02153 0.311463,0.02102 z"
       id="path843" />
  </g>
  <g
     id="g1524"
     transform="matrix(0.55870068,0,0,0.55870068,13.224268,12.619488)">
    <path
       style="fill:#3c3a3a;fill-opacity:1"
       d="m 57.827019,45.800003 q -2.16,0 -3.68,-1.52 -1.52,-1.520001 -1.52,-3.68 v -1.68 h 4.32 v 1.079999 q 0,0.880001 0.28,1.200001 0.32,0.28 1.2,0.28 h 17.2 q 0.88,0 1.16,-0.28 0.28,-0.32 0.28,-1.200001 v -4.96 q 0,-0.92 -0.28,-1.2 -0.28,-0.28 -1.16,-0.28 h -17.8 q -2.16,0 -3.68,-1.52 -1.52,-1.52 -1.52,-3.680005 v -6.16 q 0,-2.16 1.52,-3.68 1.52,-1.52 3.68,-1.52 h 18.4 q 2.16,0 3.68,1.52 1.52,1.52 1.52,3.68 v 1.68 h -4.36 v -1.08 q 0,-0.88 -0.28,-1.16 -0.28,-0.32 -1.16,-0.32 h -17.2 q -0.88,0 -1.2,0.32 -0.28,0.28 -0.28,1.16 v 4.96 q 0,0.92 0.28,1.2 0.32,0.28 1.2,0.28 h 17.8 q 2.16,0 3.68,1.520005 1.52,1.52 1.52,3.68 v 6.160001 q 0,2.159999 -1.52,3.68 -1.52,1.52 -3.68,1.52 z"
       id="path853" />
    <path
       style="fill:#3c3a3a;fill-opacity:1"
       d="M 85.675769,55.000002 V 22.599997 h 18.400001 q 2.16,0 3.68,1.52 1.52,1.52 1.52,3.68 v 12.800006 q 0,2.159999 -1.52,3.68 -1.52,1.52 -3.68,1.52 H 89.995769 v 9.2 z m 5.8,-13.52 h 12.000001 q 0.88,0 1.16,-0.28 0.32,-0.32 0.32,-1.2 V 28.399997 q 0,-0.88 -0.32,-1.16 -0.28,-0.32 -1.16,-0.32 H 91.475769 q -0.88,0 -1.2,0.32 -0.28,0.28 -0.28,1.16 v 11.600005 q 0,0.880001 0.28,1.200001 0.32,0.28 1.2,0.279999 z"
       id="path855" />
    <path
       style="fill:#3c3a3a;fill-opacity:1"
       d="m 117.31827,45.800003 q -2.16,0 -3.68,-1.52 -1.52,-1.520001 -1.52,-3.68 V 27.799997 q 0,-2.16 1.52,-3.68 1.52,-1.52 3.68,-1.52 h 18.32 v 4.32 h -17.72 q -0.88,0 -1.2,0.32 -0.28,0.280001 -0.28,1.160001 v 11.600005 q 0,0.88 0.28,1.2 0.32,0.28 1.2,0.28 h 17.8 v 4.32 z"
       id="path857" />
    <path
       style="fill:#3c3a3a;fill-opacity:1"
       d="M 139.26952,45.800003 V 14.999997 h 4.32 v 17.040005 h 5.2 l 8.68,-9.440005 h 4.96 v 0.800001 l -9.8,10.800005 9.8,10.8 v 0.8 h -4.96 l -8.68,-9.44 h -5.2 v 9.44 z"
       id="path859" />
  </g>
</svg>
